# xmcd
#
# Track frame offsets: 
#        150
#        7563
#        22949
#        32952
#        46154
#        57016
#        71020
#        81514
#        95144
#        109777
#        123280
#        138337
#        150943
#        159336
#        170373
#        179829
#        190403
#
# Disc length: 2717 seconds
#
# Revision: 1
# Processed by: cddbd v1.5.2PL0 Copyright (c) Steve Scherf et al.
# Submitted via: ExactAudioCopy v0.99pb4
#
DISCID=d50a9b11
DTITLE=Guthrie Woody - Woody Guthrie CD1
DYEAR=2006
DGENRE=Folk USA
TTITLE0=A Dollar Down
TTITLE1=Ain't Gonna Be Treated This Way
TTITLE2=Bad Lee Brown
TTITLE3=Baltimore To Washington
TTITLE4=Bed On The Floor
TTITLE5=Better World A-Comin'
TTITLE6=Biggest Thing Man Has Ever Done
TTITLE7=Blowing Down The Road
TTITLE8=Boll Weevil Blues
TTITLE9=Brown Eyes
TTITLE10=Buffalo Skinners
TTITLE11=Bury Me Beneath The Willow
TTITLE12=Car Song
TTITLE13=Columbus Stockade
TTITLE14=Cowboy Waltz
TTITLE15=Cumberland Gap
TTITLE16=Danville Girl
EXTD=YEAR: 2006\nDeja Vu Definitive Gold edition
EXTT0=
EXTT1=
EXTT2=
EXTT3=
EXTT4=
EXTT5=
EXTT6=
EXTT7=
EXTT8=
EXTT9=
EXTT10=
EXTT11=
EXTT12=
EXTT13=
EXTT14=
EXTT15=
EXTT16=
PLAYORDER=
